# xmcd
#
# Track frame offsets:
#	150
#	3396
#	44897
#	130211
#	134119
#	173630
#	174642
#
# Disc length: 2854 seconds
#
# Revision: 1
# Processed by: cddbd v1.5.2PL0 Copyright (c) Steve Scherf et al.
# Submitted via: audiograbber 1.83.01
#
DISCID=640b2407
DTITLE=Various Artist - The Amazing Zigzag Concert [CD4]
DYEAR=2010
DGENRE=Country Rock
TTITLE0=M.C. - Introduction: Help Yourself MkI
TTITLE1=Help Yourself - Running Down Deep
TTITLE2=Help Yourself - Reaffirmation
TTITLE3=M.C. - Introduction: Help Yourself MkII
TTITLE4=Help Yourself - American Mother
TTITLE5=Help Yourself - Introduction: Help Yourself MkI and MkII
TTITLE6=Help Yourself - Blown Away
EXTD=
EXTT0=
EXTT1=
EXTT2=
EXTT3=
EXTT4=
EXTT5=
EXTT6=
PLAYORDER=
